# xmcd
# 
# Track frame offsets:
#     150
#     20830
#     40606
#     61240
#     80371
#     101494
#     110943
#     133588
#     167288
#     190271
#     208311
# 
# Disc length: 3107
# 
# Revision: 5
# Processed by: cddbd v1.5.2PL0 Copyright (c) Steve Scherf et al.
# Submitted via: fre:ac v1.1beta1pre2
# 
DISCID=940c210b
DTITLE=Oasis - Stop The Clocks 2
DYEAR=2006
DGENRE=Rock
TTITLE0=Live Forever
TTITLE1=Acquiesce
TTITLE2=Supersonic
TTITLE3=Half The World Away
TTITLE4=Go Let It Out
TTITLE5=Songbird
TTITLE6=Morning Glory
TTITLE7=Champagne Supernova
TTITLE8=Don't Look Back In Anger
TTITLE9=Roll With It
TTITLE10=Let There Be Love
EXTD=YEAR: 2006
EXTT0=
EXTT1=
EXTT2=
EXTT3=
EXTT4=
EXTT5=
EXTT6=
EXTT7=
EXTT8=
EXTT9=
EXTT10=
PLAYORDER=
